<?xml version="1.0" encoding="UTF-8"?>
<svg width="260px" height="64px" viewBox="0 0 260 64" version="1.1" xmlns="http://www.w3.org/2000/svg" xmlns:xlink="http://www.w3.org/1999/xlink">
    <!-- Generator: Sketch 52.2 (67145) - http://www.bohemiancoding.com/sketch -->
    <title>logo_blue</title>
    <desc>Created with Sketch.</desc>
    <defs>
        <path d="M12.7485,8.0481 C12.7485,8.0481 16.3692839,8.41208184 19.6541603,11.7287756 C22.4900742,14.5921582 23.6628957,18.3661 28.5618957,18.1071 C28.5618957,18.1071 26.9432239,23.7626775 21.2336877,24.3784339 C16.7947034,24.8571651 11.8005,26.8891 9.2175,33.5981 C6.88616667,39.6507667 5.48033333,46.7875918 5,55.0085754 C3.11913002,55.0085754 1.78579669,55.0085754 1,55.0085754 C-0.746596397,44.7197552 -0.61835305,12.1438772 9.1605,0.6501 C9.1605,0.6501 12.3035,2.7041 12.7485,8.0481 Z" id="path-1"></path>
    </defs>
    <g id="logo_blue" stroke="none" stroke-width="1" fill="none" fill-rule="evenodd">
        <g id="Group" transform="translate(9.000000, 4.000000)">
            <path d="M145.25,33.58 L148.97,33.58 L157.22,55 L153.71,55 L151.7,49.48 L142.49,49.48 L140.48,55 L137,55 L145.25,33.58 Z M143.48,46.78 L150.71,46.78 L147.17,37.09 L147.05,37.09 L143.48,46.78 Z M159.88,33.58 L163.12,33.58 L163.12,55 L159.88,55 L159.88,33.58 Z M167.28,45.91 L182.43,45.91 L182.43,48.55 L167.28,48.55 L167.28,45.91 Z M186.53,33.58 L189.8,33.58 L189.8,42.61 L201.02,42.61 L201.02,33.58 L204.29,33.58 L204.29,55 L201.02,55 L201.02,45.4 L189.8,45.4 L189.8,55 L186.53,55 L186.53,33.58 Z M208.69,39.49 L211.87,39.49 L211.87,48.94 C211.87,50.26 212.14,51.22 212.71,51.82 C213.25,52.42 214.15,52.75 215.38,52.75 C216.22,52.75 216.97,52.39 217.69,51.73 C218.41,51.04 218.92,50.11 219.19,48.97 L219.19,39.49 L222.37,39.49 L222.37,55 L219.19,55 L219.19,52.9 C217.87,54.58 216.25,55.42 214.3,55.42 C210.55,55.42 208.69,53.32 208.69,49.15 L208.69,39.49 Z M226.5,33.16 L229.68,33.16 L229.68,41.8 C230.94,39.97 232.5,39.07 234.42,39.07 C236.64,39.07 238.38,39.88 239.67,41.5 C240.84,43 241.44,44.89 241.44,47.17 C241.44,49.54 240.84,51.49 239.64,52.99 C238.32,54.61 236.55,55.42 234.27,55.42 C232.14,55.42 230.55,54.64 229.47,53.14 L229.47,55 L226.5,55 L226.5,33.16 Z M233.7,41.65 C232.5,41.65 231.54,42.1 230.82,43.06 C229.98,44.08 229.59,45.43 229.59,47.11 L229.59,47.38 C229.59,48.94 229.92,50.2 230.58,51.19 C231.33,52.27 232.41,52.84 233.79,52.84 C235.35,52.84 236.49,52.27 237.24,51.16 C237.84,50.2 238.17,48.88 238.17,47.17 C238.17,45.46 237.84,44.14 237.18,43.24 C236.43,42.16 235.26,41.65 233.7,41.65 Z" id="AI-Hub" fill="#446AEB"></path>
            <path d="M70.1,33.58 L84.65,33.58 L84.65,36.37 L73.37,36.37 L73.37,42.61 L84.02,42.61 L84.02,45.4 L73.37,45.4 L73.37,55 L70.1,55 L70.1,33.58 Z M94.93,39.07 C95.71,39.07 96.4,39.19 96.94,39.46 L96.94,42.64 C96.16,42.4 95.41,42.31 94.69,42.31 C93.73,42.31 92.86,42.7 92.11,43.48 C91.3,44.32 90.91,45.43 90.91,46.78 L90.91,55 L87.73,55 L87.73,39.49 L90.91,39.49 L90.91,41.83 C91.3,40.99 91.81,40.36 92.41,39.94 C93.13,39.34 93.97,39.07 94.93,39.07 Z M105.96,39.07 C108.48,39.07 110.43,39.91 111.75,41.65 C112.95,43.21 113.58,45.37 113.61,48.13 L101.85,48.13 C101.97,49.63 102.36,50.8 103.08,51.61 C103.8,52.39 104.79,52.81 106.05,52.81 C107.16,52.81 108.06,52.54 108.75,52.03 C109.29,51.61 109.74,50.92 110.16,50.02 L113.34,50.02 C112.98,51.46 112.29,52.69 111.21,53.65 C109.86,54.82 108.15,55.42 106.08,55.42 C103.8,55.42 101.97,54.7 100.65,53.29 C99.21,51.79 98.49,49.78 98.49,47.23 C98.49,44.92 99.15,43 100.53,41.44 C101.85,39.85 103.68,39.07 105.96,39.07 Z M106.05,41.68 C104.85,41.68 103.92,42.01 103.2,42.73 C102.54,43.42 102.09,44.41 101.91,45.73 L110.28,45.73 C109.98,43.03 108.57,41.68 106.05,41.68 Z M123.38,39.07 C125.9,39.07 127.85,39.91 129.17,41.65 C130.37,43.21 131,45.37 131.03,48.13 L119.27,48.13 C119.39,49.63 119.78,50.8 120.5,51.61 C121.22,52.39 122.21,52.81 123.47,52.81 C124.58,52.81 125.48,52.54 126.17,52.03 C126.71,51.61 127.16,50.92 127.58,50.02 L130.76,50.02 C130.4,51.46 129.71,52.69 128.63,53.65 C127.28,54.82 125.57,55.42 123.5,55.42 C121.22,55.42 119.39,54.7 118.07,53.29 C116.63,51.79 115.91,49.78 115.91,47.23 C115.91,44.92 116.57,43 117.95,41.44 C119.27,39.85 121.1,39.07 123.38,39.07 Z M123.47,41.68 C122.27,41.68 121.34,42.01 120.62,42.73 C119.96,43.42 119.51,44.41 119.33,45.73 L127.7,45.73 C127.4,43.03 125.99,41.68 123.47,41.68 Z" id="Free" fill="#446AEB"></path>
            <g id="Group-2-Copy">
                <path d="M10.0443,6.9635 C10.0443,6.9635 12.0313,4.1605 15.7803,2.2355 C15.7803,2.2355 18.5923,8.0765 14.9083,11.2755 L10.0443,6.9635 Z" id="Stroke-3" fill="#FF6713"></path>
                <g id="Oval">
                    <mask id="mask-2" fill="white">
                        <use xlink:href="#path-1"></use>
                    </mask>
                    <use id="Mask" fill="#446AEB" xlink:href="#path-1"></use>
                    <circle fill="#6C5162" mask="url(#mask-2)" cx="28" cy="19" r="2"></circle>
                </g>
                <path d="M35.7633584,54.9484382 C46.6440574,54.9484382 54.299671,51.6440495 58.8506716,45 C63.4016722,38.3559505 64.6599293,25.5954 54.5830751,20.2461643 C44.5062208,14.8969286 46.3586946,10.0339153 48.5707766,5.3733642 C37.4581457,5.3733642 33.0030102,18.6949436 40.7924716,26.7011668 C48.1204781,34.233094 46.149671,41.7926843 34.8800502,49.3799379 C35.1961732,51.2625409 35.4906093,53.1187077 35.7633584,54.9484382 Z" id="Path-9" fill="#446AEB"></path>
                <path d="M45.8038446,8 C45.3500212,9.76059091 44.1765895,13.8593824 48.2300401,17.4788765 C46.6547807,17.7400401 45.7120111,17.3999832 45.0945859,16.6801127 C44.5915632,17.228185 44.5915632,18.2014384 44.7058651,19.2014384 C43.4338806,18.8439688 42.4910422,18.1432299 41.8773496,17.0992217 C41.1715568,18.2636642 41.0673438,19.6788769 41.5647107,21.3448597 C37.0706634,17.341131 38.4820491,9.394396 45.8038446,8 Z" id="Path-12" fill="#FFF9F3"></path>
                <path d="M12.4261,17.2018 C11.3221,17.2018 10.4261,16.3058 10.4261,15.2018 C10.4261,14.0978 11.3221,13.2018 12.4261,13.2018 C13.5301,13.2018 14.4261,14.0978 14.4261,15.2018 C14.4261,16.3058 13.5301,17.2018 12.4261,17.2018 Z" id="Fill-17" fill="#FF6713"></path>
                <path d="M8,55 C8,47.2680135 11.6360296,30.0130768 22,30.0130768 C32.3639704,30.0130768 36,47.2680135 36,55 L32,55 C32,49.4771525 27.5228475,45 22,45 C16.4771525,45 12,49.4771525 12,55 L8,55 Z" id="Combined-Shape" fill="#446AEB"></path>
            </g>
        </g>
    </g>
</svg>